<svg xmlns="http://www.w3.org/2000/svg" width="842" viewBox="260 250 312 96"><path fill="#FFF" d="M511.508 250.742l2.605 2.608-.078.307.111.109-1.506 6.004-2.838 5.354-2.559 5.479-2.871 2.873c-.029.036-1.648 2.405-1.648 2.405l-.787 1.155-.898 3.048-1.783 6.094-.242.831.439.223 1.762-2.279 5.418-6.232 5.691-3.566h1.219l.258-.161h3.604c.141.159 2.939 3.35 3.057 3.482v.284l.031 3.184c-.176.146-5.789 4.848-5.789 4.848l-5.553 2.825 3.15 3.15c.025.147.748 4.112.748 4.112l.307.13.111-.058 2.852-1.586c.039-.027 3.314-2.791 3.314-2.791l2.836-2.393c.025-.023 4.652-5.266 4.652-5.266l4.768-5.243s3.904-4.791 4.18-5.128c.193.138.479.337.479.337l.191.119.191.135.613-.753 1.752 1.236-.166.275.199.141-3.053 5.035c-.012.023-1.291 2.807-1.291 2.807l-1.074 2.339c-.016.045-.629 2.489-.629 2.489l-.557 2.219 1.537 4.085h.908l3.291-2.032 5.154-5.153c.02-.022 2.217-2.847 2.217-2.847l4.074-5.2c.021-.036 1.795-3.458 2.246-4.329l1.152.467s.229-.442.324-.629l1.994.81-.107.358.139.057-1.336 4.433-2.09 5.294-1.736 5.32-2.184 5.357c.004-.006-2.281 5.203-2.281 5.203-.014.037-.812 2.967-.812 2.967l-.125.453 1.045-.355c.002-.002 8.088-3.285 8.088-3.285l7.619-4.163c.035-.023 5.508-4.516 6.57-5.389l.5.606.371-.305c.012.014.373-.276.605-.465l1.344 1.637-.184.151.217.265-6.721 5.519-7.904 4.314-8.268 3.357c.012-.006-4.143 1.408-4.143 1.408l-.109.037-2.348 5.893-3.701 7.203-3.582 5.721-4.465 6.443-5.363 5.357-6.736 4.84-.498-.031s-.244.176-.334.238c-.172-.01-9.215-.588-9.398-.602l-.441-.445s-.168-.01-.236-.016l-6.801-6.859-.865-8.693c.123-.154 5.742-7.27 5.809-7.355l9.289-4.723 8.596-2.969 7.311-2.342 7.777-2.625 2.797-.953 1.584-5.797 2.338-5.321 2.143-5.262.373-1.138-.436-.23-.217.277-5.424 5.421-4.273 2.637h-.494l-.338.208h-4.188l-.174-.461h-.506c-.113-.305-2.312-6.154-2.365-6.294.035-.145.797-3.18.797-3.18l-.43-.227-3.855 4.369-6.426 5.418-4.836 2.682-.262-.109-.568.316c-.199-.084-2.775-1.156-2.998-1.248l-.035-.192-.645-.27-.836-4.597-1.67-1.67-6.15-1.438-1.918 2.48-3.062 5.084-.566-.231-.264.44-1.996-.82.041-.166-.719-.296c.094-.393 1.625-6.717 1.625-6.717l1.561-5.376.283-.947-7.705 7.703-5.4 3.95-5.467 3.253-6.617 1.658c-.135-.057-1.432-.584-1.432-.584l-.373.094c-.146-.068-3.262-1.538-3.646-1.717.025-.059.053-.119.053-.119l-.73-.343.855-1.95 1.193.486.283-.647 3.004 1.224 2.414-.603 2.021-3.046v-4.65l-1.057-3.087-.996-3.982-.107-.428-10.73 10.729h-.623s-.146.147-.209.208h-2.086l-.463-.462h-.217l-3.242-3.243-3.43 3.908-5.4 5.4-7.373 5.103-.217-.219s-.436.301-.613.426l-.551-.551-.127.09c-.26-.262-2.705-2.707-2.838-2.84v-3.916l.68-5.428 1.363-5.428c.002.002.939-2.385.939-2.385l.338-.857-2.15 1.69-5.336 5.334s-5.5 4.047-5.631 4.142h-.547l-.283.208h-4.265l-.463-.461h-.217l-.975-.976-.682 2.042c-.031.052-2.691 4.204-2.75 4.297-.092.057-5.639 3.547-5.758 3.624h-.5l-.33.207h-4.033l-.461-.461h-.219l-2.428-2.428c-.033-.062-1.439-2.666-1.497-2.771v-7.737l-8.513 8.514-5.062 4.237-.474-.092-.357.299c-.214-.039-4.451-.852-4.816-.922v-.332l-.679-.129v-5.253l2.078-4.618 3.052-5.88.055-.106-1.15-2.624h-1.524l-4.586 2.727-13.75 13.749-.382-.242-.448.449-1.989-1.256-.511-.348 2.267-6.378 1.951-5.188c.012-.042.242-1.271.242-1.271l.149-.795-14.021 14.021-5.661 3.449h-.489l-.342.209h-3.917l-.214-.463h-.465c-.122-.266-1.895-4.095-1.984-4.291l2.736-5.824c-.014.024 3.641-5.638 3.641-5.638l.04-.062v-2.31l-1.942-.603-3.904-1.371-.148-.053-3.133 3.136-5.343 6.024-5.454 4.611-7.112 3.745-.107-.175-.725.382-.379-.618-.298.157-2.668-4.347v-2.418l-.813 1.036-5.448 5.446-5.922 3.109-.149-.15s-.493.26-.682.357l-.536-.535-.142.074-3.534-3.534v-4.439l-3.244 2.54-5.449 3.583-5.674 2.127c-.052-.012-.179-.037-.179-.037l-.652.244c-.137-.027-5.768-1.195-5.909-1.225l-.405-.406s-.194-.041-.272-.055l-2.278-2.278-.741-5.917 2.633-7.055 5.646-5.646c.113-.036 5.786-1.813 5.982-1.876l.346.193 1.13-.354 5.479 3.057-.169.303.202.113-1.032 1.849-.545-.305-.285.513-4.624-2.579-3.845 1.205-4.953 4.953-2.275 6.097.539 4.304 1.317 1.317 4.015.832 4.074-1.531c.048-.025 5.183-3.403 5.183-3.403l5.15-4.032 2.688-3.788s2.604-3.332 2.649-3.392l2.956-2.049c.031-.026 2.282-2.277 2.718-2.713l1.121.194.354-.355 6.07 1.05 2.408 1.661.445.45.214.215 1.213-1.796.938.634.537-.796 1.755 1.185-.183.271.216.146-4.411 6.534v6.368l.998 1.626 3.962-2.09c.044-.029 5.164-4.361 5.164-4.361.023-.023 5.288-5.961 5.288-5.961l2.381-2.379.281-.281-.966-.339.085-.194-.763-.268 2.439-5.614.508.853.17-.392.305.513.493-1.135 3.181 5.344 3.581 1.258 4.075 1.263v.221l.031 4.941-3.939 6.104c-.017.03-2.13 4.525-2.13 4.525l-.05.105.891 1.923h.759l4.672-2.847 16.119-16.118h1.315l.161-.161h3.642l-.078.415h.111l-1.254 6.665-1.367 3.624.411.265 7.44-7.44 5.663-3.367h1.204l.271-.161h4.448c.122.277 2.227 5.076 2.315 5.28l-.08.156.112.259-3.545 6.83-1.868 4.152v2.64l1.034.197 3.788-3.171 12.481-12.481 5.365-3.597 6.381-2.23h1.014l.461-.161h2.482v.166l.033 1.71v.25h2.33l1.742 5.754-.047.146.08.269-.986 3.007.65.939c.025.031 1.252 1.257 1.252 1.257l.199.199h1.439l4.719-3.476c.029-.024 5.312-5.309 5.312-5.309s5.746-4.516 6.076-4.774l.557.557.92-.719 2.299 2.301-.107.274s.135.134.141.142c-.113.292-2.562 6.515-2.562 6.515-.01.03-1.299 5.173-1.299 5.173-.006.027-.648 5.167-.648 5.167l-.002 2.523.428.428 4.791-3.32 5.219-5.214c.012-.012 4.709-5.362 4.709-5.362s-1.178-5.162-1.207-5.283l1.773-6.331h1.434l.045-.161h3.043c.062.393.996 6.353 1.018 6.484-.006.012-.023.058-.023.058l.057.358-2.252 5.506 2.996 3 14.785-14.787.502.348.107.065.172.121.695-.695 1.773 1.23-.137.299.168.117-2.137 4.67 1.148 4.573c.004.016 1.066 3.12 1.139 3.334v.32s.025.068.033.096v5.643l-.107.161.336.354 1.908-1.135 5.188-3.796 10.469-10.468c.031-.035 2.574-3.771 2.574-3.771l.021-.032.332-1.116 2.213-7.876 2.498-5.727 2.912-5.79 3.586-4.451.582.582.098-.12.164.165.631-.786zm21.017 62.053l-7.303 2.34-8.434 2.914c-.031.014-8.697 4.42-8.697 4.42l-.049.025-4.982 6.309.666 6.691 5.703 5.754 6.693.428 5.654-4.066 5.104-5.1c.029-.035 4.334-6.244 4.334-6.244l3.506-5.604 3.613-7.031c.012-.023 1.09-2.729 1.09-2.729l.199-.504-7.097 2.397zm-18.416-35.064l-4.576 2.868-5.172 5.951-2.129 2.75 4.643-1.926c.021-.009 5.141-2.621 5.141-2.621l.025-.013 4.826-4.042v-1.267l-1.492-1.701h-1.266zm-105.374 3.498l-3.982 3.982-2.131 4.445v6.202l1.061 1.967 1.588 1.588 1.328.002 4.586-2.888 2.352-3.674 1.412-4.233-1.84-2.661V279.7l-4.374 1.529zm-102.975.186c-.002-.003-2.82 1.951-2.82 1.951l-.031.021-2.423 3.1-1.431 2.017v7.156l1.377 1.377 3.183-1.672 5.13-5.13c.021-.022 3.107-3.95 3.107-3.95l1.001-1.272 1.497-2.218-1.633-1.632c-.034-.028-1.152-.8-1.152-.8l-.046-.031-3.985-.69c-.001-.001-1.773 1.772-1.774 1.773z"/></svg>